<svg width="58" height="56" viewBox="0 0 58 56" fill="none" xmlns="http://www.w3.org/2000/svg">
<path fill-rule="evenodd" clip-rule="evenodd" d="M29 0C12.9775 0 0 12.8469 0 28.7082C0 41.4116 8.30125 52.1413 19.8287 55.9452C21.2787 56.1964 21.8225 55.3351 21.8225 54.5815C21.8225 53.8997 21.7863 51.6389 21.7863 49.2346C14.5 50.5624 12.615 47.4762 12.035 45.8614C11.7087 45.036 10.295 42.4882 9.0625 41.8064C8.0475 41.2681 6.5975 39.9403 9.02625 39.9044C11.31 39.8685 12.9412 41.9858 13.485 42.847C16.095 47.1891 20.2638 45.9691 21.9313 45.2155C22.185 43.3494 22.9462 42.0934 23.78 41.3757C17.3275 40.658 10.585 38.1819 10.585 27.201C10.585 24.079 11.7087 21.4953 13.5575 19.4857C13.2675 18.768 12.2525 15.8254 13.8475 11.878C13.8475 11.878 16.2763 11.1244 21.8225 14.8206C24.1425 14.1747 26.6075 13.8517 29.0725 13.8517C31.5375 13.8517 34.0025 14.1747 36.3225 14.8206C41.8688 11.0886 44.2975 11.878 44.2975 11.878C45.8925 15.8254 44.8775 18.768 44.5875 19.4857C46.4362 21.4953 47.56 24.0431 47.56 27.201C47.56 38.2178 40.7812 40.658 34.3288 41.3757C35.38 42.2729 36.2863 43.9954 36.2863 46.6868C36.2863 50.5265 36.25 53.6126 36.25 54.5815C36.25 55.3351 36.7938 56.2322 38.2438 55.9452C49.6987 52.1413 58 41.3757 58 28.7082C58 12.8469 45.0225 0 29 0Z" fill="black"/>
</svg>
