<svg width="920" height="603" viewBox="0 0 920 603" fill="none" xmlns="http://www.w3.org/2000/svg">
<path d="M756.619 380.115L755.345 356.846L705.25 349.608L697.434 371.554C692.643 372.079 687.867 372.892 683.139 374.001L694.945 429.954C712.656 425.37 731.718 428.854 746.703 439.617L773.93 389.089C768.386 385.603 762.591 382.613 756.619 380.115Z" fill="url(#paint0_linear)"/>
<path d="M349.31 389.161V386.751C374.447 386.751 396.738 371.678 406.097 348.351L408.333 349.249C398.607 373.495 375.438 389.161 349.31 389.161Z" fill="url(#paint1_linear)"/>
<path d="M349.31 406.974V404.563C367.848 404.563 385.309 398.497 399.809 387.016L401.306 388.905C386.376 400.727 368.396 406.974 349.31 406.974Z" fill="url(#paint2_linear)"/>
<path d="M408.629 411.117L407.282 409.122C423.571 398.114 436.356 382.815 444.251 364.877L446.459 365.85C438.378 384.205 425.298 399.856 408.629 411.117Z" fill="url(#paint3_linear)"/>
<path d="M595.273 177.709L552.892 131.002L554.676 129.381L597.057 176.088L595.273 177.709Z" fill="#98A6B1"/>
<path d="M250.05 422.218L289.684 450.426L306.483 434.657L307.189 434.929C311.612 436.619 316.168 438.047 320.748 439.183L330.96 385.238C324.43 383.264 318.271 380.233 312.636 376.222C284.22 355.993 277.552 316.418 297.773 287.999C317.997 259.577 357.57 252.911 385.99 273.134C405.621 287.104 415.646 311.296 411.738 335.026L464.967 348.14C465.85 343.768 466.488 339.317 466.868 334.89L466.931 334.137L488.473 325.895L480.391 277.931L457.34 277.199L457.033 276.509C452.555 266.469 446.713 257.13 439.671 248.753L439.183 248.174L448.578 227.132L408.945 198.933L392.143 214.699L391.438 214.427C381.223 210.516 370.484 208.057 359.525 207.12L358.772 207.054L350.531 185.508L302.569 193.596L301.837 216.645L301.147 216.956C291.089 221.44 281.75 227.283 273.393 234.319L272.815 234.804L251.772 225.411L223.573 265.046L239.34 281.849L239.07 282.554C235.158 292.769 232.699 303.503 231.761 314.46L231.697 315.213L210.15 323.464L218.23 371.428L241.287 372.157L241.595 372.847C246.077 382.897 251.919 392.232 258.958 400.597L259.444 401.176L250.05 422.218ZM289.894 453.533L247.045 423.038L256.628 401.57C249.82 393.374 244.131 384.283 239.704 374.519L216.181 373.775L207.444 321.918L229.426 313.501C230.407 302.831 232.802 292.378 236.551 282.397L220.465 265.257L250.952 222.404L272.421 231.989C280.609 225.185 289.706 219.493 299.476 215.063L300.222 191.547L352.076 182.802L360.483 204.785C371.156 205.764 381.615 208.16 391.592 211.911L408.734 195.823L451.582 226.312L442 247.783C448.81 255.988 454.499 265.082 458.925 274.837L482.44 275.584L491.176 327.441L469.203 335.849C468.769 340.54 468.055 345.247 467.073 349.861L466.814 351.078L408.966 336.825L409.171 335.71C413.423 312.54 403.774 288.749 384.592 275.099C357.256 255.645 319.19 262.06 299.737 289.397C280.287 316.732 286.701 354.8 314.035 374.26C319.748 378.325 326.021 381.342 332.674 383.228L333.738 383.529L322.646 442.116L321.417 441.826C316.566 440.678 311.732 439.208 307.035 437.448L289.894 453.533Z" fill="url(#paint4_linear)"/>
<path d="M298.757 288.698C303.576 281.921 309.512 276.404 316.135 272.224L287.794 222.554C282.497 225.74 277.418 229.356 272.616 233.397L251.364 223.908L236.693 244.528L222.023 265.149L237.948 282.123C233.935 292.604 231.494 303.458 230.562 314.357L208.797 322.689L213.006 347.646L217.209 372.6L240.493 373.338C244.956 383.333 250.812 392.789 258.038 401.375L248.549 422.628L269.168 437.309L289.792 451.981L306.761 436.055C311.666 437.927 316.653 439.464 321.697 440.651L332.349 384.388C325.711 382.511 319.278 379.47 313.336 375.242C285.416 355.366 278.887 316.62 298.757 288.698ZM485.625 301.713L481.419 276.756L458.133 276.018C453.676 266.023 447.809 256.564 440.596 247.975L450.084 226.725L408.84 197.375L391.872 213.3C387.587 211.661 383.242 210.284 378.855 209.166L368.369 265.61C374.266 267.508 379.976 270.335 385.291 274.119C405.582 288.554 414.577 312.953 410.361 335.927L465.895 349.608C466.925 344.765 467.652 339.883 468.07 334.993L489.826 326.667L485.625 301.713Z" fill="url(#paint5_linear)"/>
<path d="M340.292 541.337H337.724V424.623H340.292V541.337Z" fill="#706865"/>
<path d="M282.611 541.337H280.043V424.623H282.611V541.337Z" fill="#706865"/>
<path d="M343.899 522.076H274.828C270.571 522.076 267.121 518.622 267.121 514.367V383.569C267.121 379.311 270.571 375.86 274.828 375.86H343.899C348.156 375.86 351.606 379.311 351.606 383.569V514.367C351.606 518.622 348.156 522.076 343.899 522.076Z" fill="#BDAFAA"/>
<path d="M341.675 516.362H277.053C272.848 516.362 269.439 512.951 269.439 508.747V385.832C269.439 381.625 272.848 378.217 277.053 378.217H341.675C345.878 378.217 349.289 381.625 349.289 385.832V508.747C349.289 512.951 345.878 516.362 341.675 516.362Z" fill="white"/>
<path d="M321.95 380.438H296.776V374.751H321.95V380.438Z" fill="#706865"/>
<path d="M227.372 171.014C216.005 162.926 213.348 147.154 221.437 135.784C229.526 124.418 245.298 121.76 256.665 129.848C268.032 137.939 270.689 153.711 262.6 165.08C254.512 176.447 238.739 179.105 227.372 171.014ZM287.356 167.756C288.989 163.492 289.983 159.072 290.364 154.633L299.221 151.243L297.51 141.082L295.798 130.924L286.319 130.622C284.504 126.551 282.118 122.703 279.177 119.208L283.04 110.556L274.646 104.581L266.252 98.6083L259.342 105.093C255.077 103.46 250.659 102.465 246.219 102.086L242.829 93.2264L232.67 94.938L222.511 96.6496L222.21 106.13C218.14 107.944 214.291 110.33 210.797 113.271L202.144 109.408L196.17 117.804L190.197 126.199L196.681 133.109C195.048 137.372 194.055 141.793 193.674 146.232L184.816 149.622L186.528 159.783L188.239 169.941L197.718 170.242C199.534 174.313 201.92 178.162 204.86 181.657L200.997 190.308L209.392 196.284L217.785 202.257L224.695 195.772C228.96 197.405 233.378 198.399 237.818 198.779L241.208 207.638L251.368 205.927L261.527 204.215L261.828 194.735C265.898 192.921 269.746 190.534 273.241 187.593L281.894 191.457L287.867 183.061L293.841 174.666L287.356 167.756Z" fill="#FFB955"/>
<path d="M300.993 434.489L301.698 434.757C303.558 435.468 305.51 435.917 307.505 436.089L308.255 436.152L309.759 440.075L317.307 438.804L317.44 434.606L318.13 434.299C319.959 433.482 321.658 432.418 323.18 431.138L323.758 430.653L327.591 432.364L332.029 426.124L329.158 423.065L329.426 422.36C330.137 420.501 330.586 418.548 330.758 416.553L330.821 415.8L334.744 414.299L333.473 406.747L329.275 406.615L328.968 405.925C328.151 404.099 327.088 402.399 325.807 400.877L325.322 400.299L327.034 396.466L320.793 392.027L317.735 394.899L317.03 394.628C315.171 393.916 313.218 393.471 311.223 393.299L310.47 393.232L308.969 389.309L301.418 390.584L301.286 394.781L300.596 395.089C298.768 395.905 297.069 396.966 295.547 398.247L294.97 398.735L291.137 397.023L286.698 403.261L289.57 406.323L289.3 407.028C288.589 408.887 288.141 410.84 287.97 412.834L287.905 413.585L283.982 415.089L285.254 422.637L289.452 422.77L289.76 423.46C290.575 425.289 291.639 426.988 292.919 428.51L293.405 429.089L291.694 432.922L297.933 437.36L300.993 434.489ZM308.21 442.781L306.541 438.412C304.838 438.213 303.166 437.827 301.551 437.27L298.143 440.467L288.689 433.741L290.594 429.471C289.537 428.13 288.628 426.675 287.88 425.132L283.205 424.984L281.277 413.54L285.645 411.87C285.846 410.168 286.23 408.495 286.788 406.88L283.59 403.472L290.318 394.016L294.586 395.923C295.927 394.866 297.381 393.956 298.924 393.208L299.072 388.532L310.515 386.606L312.187 390.972C313.89 391.174 315.562 391.557 317.174 392.117L320.582 388.917L330.038 395.646L328.133 399.916C329.188 401.257 330.098 402.71 330.848 404.252L335.522 404.403L337.45 415.845L333.081 417.517C332.879 419.22 332.497 420.892 331.939 422.504L335.136 425.916L328.411 435.369L324.141 433.464C322.8 434.519 321.345 435.429 319.802 436.179L319.654 440.853L308.21 442.781Z" fill="#CFCFCF"/>
<path d="M315.496 406.045C313.694 404.768 311.576 404.09 309.373 404.09C307.855 404.09 306.324 404.424 304.944 405.054L303.943 402.863C305.634 402.089 307.511 401.679 309.373 401.679C312.079 401.679 314.679 402.511 316.891 404.081L315.496 406.045ZM301.858 425.322L301.804 425.286C298.395 422.857 296.351 418.892 296.351 414.682C296.351 414.278 296.37 413.871 296.408 413.467L298.808 413.693C298.777 414.022 298.762 414.353 298.762 414.682C298.762 418.114 300.427 421.344 303.217 423.33L301.858 425.322ZM314.803 426.515L313.797 424.325C315.472 423.556 316.924 422.351 318 420.841C319.085 419.316 319.751 417.529 319.919 415.679L322.321 415.899C322.11 418.174 321.296 420.368 319.965 422.239C318.645 424.093 316.858 425.572 314.803 426.515Z" fill="#CFCFCF"/>
<path d="M327.055 448.754C325.497 448.754 323.96 449.483 322.99 450.845C321.399 453.084 321.923 456.2 324.162 457.791C325.244 458.562 326.564 458.867 327.874 458.644C329.188 458.424 330.333 457.704 331.104 456.622C332.698 454.383 332.174 451.267 329.935 449.676C329.061 449.052 328.052 448.754 327.055 448.754ZM327.034 461.127C325.509 461.127 324.029 460.657 322.764 459.756C319.443 457.393 318.663 452.768 321.025 449.447C323.388 446.126 328.013 445.349 331.333 447.711C334.654 450.074 335.431 454.699 333.069 458.02C331.924 459.626 330.222 460.693 328.275 461.021C327.859 461.091 327.443 461.127 327.034 461.127ZM322.532 463.438L323.237 463.709C324.162 464.065 325.132 464.285 326.124 464.372L326.874 464.436L327.621 466.388L330.652 465.879L330.719 463.788L331.409 463.48C332.316 463.077 333.159 462.546 333.916 461.91L334.494 461.425L336.402 462.275L338.182 459.774L336.754 458.249L337.022 457.544C337.378 456.622 337.601 455.652 337.685 454.657L337.749 453.907L339.701 453.159L339.192 450.131L337.104 450.065L336.793 449.375C336.39 448.465 335.862 447.621 335.223 446.865L334.738 446.286L335.591 444.378L333.087 442.598L331.565 444.026L330.857 443.758C329.935 443.402 328.965 443.182 327.974 443.095L327.22 443.032L326.473 441.079L323.445 441.588L323.379 443.679L322.688 443.987C321.782 444.391 320.935 444.921 320.178 445.557L319.6 446.042L317.693 445.192L315.912 447.693L317.343 449.218L317.072 449.923C316.719 450.845 316.496 451.816 316.412 452.807L316.346 453.56L314.393 454.308L314.905 457.336L316.994 457.402L317.301 458.092C317.708 459.002 318.235 459.846 318.871 460.603L319.359 461.181L318.506 463.089L321.01 464.869L322.532 463.438ZM326.075 469.094L325.156 466.684C324.457 466.584 323.77 466.424 323.098 466.213L321.221 467.979L315.499 463.908L316.551 461.555C316.132 460.991 315.758 460.392 315.433 459.765L312.853 459.683L311.69 452.762L314.098 451.84C314.197 451.141 314.357 450.453 314.568 449.784L312.805 447.904L316.873 442.185L319.229 443.236C319.793 442.815 320.389 442.441 321.016 442.118L321.098 439.539L328.019 438.373L328.941 440.784C329.64 440.883 330.327 441.04 330.996 441.254L332.876 439.491L338.595 443.559L337.544 445.912C337.966 446.476 338.339 447.075 338.665 447.702L341.241 447.784L342.407 454.705L339.999 455.627C339.897 456.327 339.74 457.014 339.526 457.683L341.292 459.563L337.221 465.282L334.868 464.231C334.304 464.653 333.705 465.026 333.081 465.349L333 467.928L326.075 469.094Z" fill="#CFCFCF"/>
<path d="M264.423 476.658C264.423 476.658 265.001 477.607 265.074 478.382C265.131 478.993 265.647 479.909 265.87 480.416C266.093 480.922 266.812 483.215 266.837 483.809C266.848 484.053 266.304 485.59 266.381 486.081C266.458 486.572 266.739 487.545 266.298 487.611C265.857 487.675 265.357 486.876 265.357 486.876C265.357 486.876 265.399 487.328 265.025 487.503C264.299 487.837 263.915 487.542 263.915 487.542C263.915 487.542 263.647 488.039 263.311 488.106C262.57 488.253 262.207 487.958 262.207 487.958C262.207 487.958 261.88 488.235 261.368 488.226C260.713 488.214 260.438 487.648 260.438 487.648C260.438 487.648 259.608 487.816 259.368 487.428C259.127 487.042 259.168 486.629 259.069 486.28C258.969 485.927 259.045 482.76 260.121 480.479C261.197 478.198 259.847 475.974 259.847 475.974L264.423 476.658Z" fill="#EEA886"/>
<path d="M265.474 486.581C265.474 486.581 265.547 483.739 264.799 483.134C264.051 482.528 263.966 483.552 263.966 483.552C263.966 483.552 264.068 482.54 263.25 482.404C262.433 482.266 262.399 483.471 262.399 483.471C262.399 483.471 262.265 482.688 261.406 482.85C260.548 483.01 260.752 484.007 260.752 484.007C260.752 484.007 259.932 483.028 259.4 483.968C258.502 485.556 259.368 487.428 259.368 487.428C259.368 487.428 259.621 487.859 260.438 487.648C260.438 487.648 260.984 488.75 262.207 487.958C262.207 487.958 263.459 488.648 263.915 487.542C263.915 487.542 265.295 488.199 265.474 486.581Z" fill="#DB9C7C"/>
<path d="M274.063 435.715C274.063 435.715 269.198 451.933 267.554 457.912C267.038 459.789 265.791 477.703 265.571 478.427C265.351 479.147 259.179 480.135 259.179 480.135C259.179 480.135 259.927 457.725 259.997 456.501C260.067 455.278 266.806 430.252 268.766 429.36C270.234 428.691 271.009 429.242 272.859 430.616C275.456 432.545 274.063 435.715 274.063 435.715Z" fill="#323657"/>
<path d="M322.05 413.829L321.507 413L332.644 405.711L333.187 406.54L322.05 413.829Z" fill="#4DA8F2"/>
<path d="M334.374 409.902C334.374 409.902 334.268 410.532 334.088 410.785C334.088 410.785 333.723 411.219 333.482 411.545C333.407 411.647 333.343 411.741 333.307 411.804C333.16 412.069 332.919 412.693 332.388 413.232C331.858 413.772 329.791 415.48 329.791 415.48L328.022 413.979L326.184 413.154C326.184 413.154 327.211 408.682 327.648 408.124C327.691 408.07 327.736 408.019 327.781 407.971C328.197 407.534 328.688 407.383 328.932 407.178C329.022 407.106 329.969 406.425 330.306 406.512C330.773 406.633 331.047 406.907 331.156 407.22C331.156 407.22 332.06 407.498 332.412 408.031C332.412 408.031 333.256 408.26 333.506 409.047C333.506 409.047 334.338 409.375 334.374 409.902Z" fill="#EFAA88"/>
<path d="M270.115 546.436C270.115 546.436 269.672 549.512 269.617 549.976C269.561 550.438 264.683 549.702 264.683 549.702L264.288 546.038C264.288 546.038 269.506 546.002 270.115 546.436Z" fill="#424773"/>
<path d="M269.669 549.585C269.669 549.585 271.214 551.438 272.709 552.249C274.203 553.056 276.553 553.375 277.436 554.213C278.075 554.816 279.76 557.419 273.552 557.365C267.344 557.314 264.351 557.733 263.685 556.735C263.02 555.738 264.648 549.377 264.648 549.377C264.648 549.377 266.118 549.904 269.669 549.585Z" fill="#292C47"/>
<path d="M305.067 546.436C305.067 546.436 304.624 549.512 304.567 549.976C304.513 550.438 299.634 549.702 299.634 549.702L299.239 546.038C299.239 546.038 304.456 546.002 305.067 546.436Z" fill="#424773"/>
<path d="M304.618 549.585C304.618 549.585 306.164 551.438 307.659 552.249C309.156 553.056 314.655 553.719 315.538 554.557C316.177 555.162 317.238 557.594 308.502 557.365C302.298 557.202 299.302 557.733 298.636 556.735C297.971 555.738 299.599 549.377 299.599 549.377C299.599 549.377 300.984 549.94 304.618 549.585Z" fill="#292C47"/>
<path d="M274.155 467.335C274.155 467.335 269.571 474.615 269.913 481.199C270.255 487.783 268.251 494.97 267.563 501.847C266.795 509.513 263.654 527.662 263.54 531.764C263.426 535.862 264.028 548.958 264.028 548.958L270.316 549.103C270.316 549.103 275.597 517.372 276.965 514.135C278.332 510.896 285.115 487.817 285.343 485.228C285.571 482.637 274.155 467.335 274.155 467.335Z" fill="#292C47"/>
<path d="M298.283 468.32C298.283 468.32 301.738 486.364 302.193 490.393C302.648 494.422 302.952 509.89 303.181 512.409C303.41 514.928 305.311 545.285 305.917 549.103H297.877C297.877 549.103 291.706 526.978 291.706 516.51C291.706 506.041 286.939 493.753 283.861 486.846C280.784 479.94 273.74 479.774 271.848 466.961C271.848 466.961 295.722 464.255 298.283 468.32Z" fill="#292C47"/>
<path d="M281.803 406.106C281.803 406.106 287.955 403.81 290.792 408.492C293.629 413.175 293.355 422.55 290.254 423.704C287.153 424.858 282.495 424.252 280.907 421.323C279.32 418.391 277.886 414.157 277.955 411.325C278.024 408.492 280.188 406.922 281.803 406.106Z" fill="#EEA886"/>
<path d="M289.586 423.918C289.586 423.918 289.33 425.578 289.753 426.398C290.177 427.214 281.783 427.239 281.783 427.239C281.783 427.239 281.102 422.785 279.81 419.027C278.518 415.266 289.586 423.918 289.586 423.918Z" fill="#EEA886"/>
<path d="M279.81 419.027C279.81 419.027 280.389 419.982 282.754 419.612C285.119 419.241 288.003 416.092 288.991 415.748C289.978 415.402 289.988 414.823 289.988 414.823L290.606 415.724L291.654 415.791C291.654 415.791 290.698 412.976 292.141 411.831C293.584 410.683 290.643 402.719 283.06 405.37C283.06 405.37 277.235 406.976 277.447 410.288C277.658 413.603 278.507 417.376 279.81 419.027Z" fill="#D88A51"/>
<path d="M290.251 426.298C290.251 426.298 290.225 424.735 289.517 424.587C288.808 424.436 281.695 423.752 280.825 424.093V425.916C280.825 425.916 282.501 426.946 290.251 426.298Z" fill="#E2D2CA"/>
<path d="M289.831 413.618C289.698 413.064 288.285 411.476 287.744 413.175C287.203 414.875 288.562 417.162 289.319 416.966C290.077 416.77 290.167 415.025 289.831 413.618Z" fill="#EEA886"/>
<path d="M302.018 428.667C297.14 428.022 290.252 426.298 290.252 426.298L280.825 425.916C280.825 425.916 272.173 427.82 268.766 429.36C268.442 429.505 268.441 437.077 267.554 439.063L270.379 445.023C270.379 445.023 272.011 456.83 272.349 462.079C272.505 464.49 268.984 484.683 268.984 484.683C268.984 484.683 272.757 485.794 279.191 486.503C285.624 487.211 301.698 486.246 301.801 485.487C301.903 484.728 298.688 457.188 298.545 455.763C298.327 453.575 299.3 441.944 299.3 441.944C300.785 440.793 313.827 434.736 317.385 431.581C318.337 430.737 322.357 426.823 323.499 425.473C327.546 420.687 330.863 416.583 331.267 415.7C331.725 415.197 326.732 412.512 326.292 412.367C325.907 412.238 320.576 419.368 318.47 421.649C317.533 422.664 313.631 425.503 313.631 425.503C313.631 425.503 305.067 428.842 302.018 428.667Z" fill="#323657"/>
<path d="M280.051 406.66C280.051 406.66 272.207 407.272 279.81 419.027L280.051 406.66Z" fill="#D88A51"/>
<path d="M333.187 406.54L333.828 405.557L332.644 405.711L333.187 406.54Z" fill="#DFE1E8"/>
<path d="M553.784 131.647C557.192 131.647 559.965 128.875 559.965 125.467H558.509C558.509 128.073 556.391 130.192 553.784 130.192C551.178 130.192 549.06 128.073 549.06 125.467C549.06 122.86 551.178 120.742 553.784 120.742H554.514V45.9133H553.058V119.328C549.991 119.69 547.604 122.302 547.604 125.467C547.604 128.875 550.376 131.647 553.784 131.647Z" fill="#385369"/>
<path d="M552.109 119.012H555.589V83.6769H552.109V119.012Z" fill="#98A6B1"/>
<path d="M512.359 177.709L510.575 176.088L553.884 128.41L555.469 130.252L512.359 177.709Z" fill="#98A6B1"/>
<path d="M625.252 223.537C630.197 219.824 634.804 215.762 639.049 211.396L599.335 170.233C593.384 176.706 585.953 182.012 577.287 185.58C552.338 195.85 524.562 188.675 507.498 169.697L468.519 211.643C472.632 215.847 477.032 219.71 481.675 223.214L477.14 246.068L500.496 255.804L523.857 265.534L536.883 246.222C547.719 247.773 558.843 247.843 569.956 246.309L582.892 265.661L606.293 256.021L629.693 246.384L625.252 223.537Z" fill="url(#paint6_linear)"/>
<path d="M509.481 373.395H470.526V407.579L476.474 401.631H509.481V373.395Z" fill="#FFCE55"/>
<path d="M470.939 437.454C470.939 437.454 471.78 435.369 471.918 435.055C472.057 434.742 472.867 434.227 473.85 433.72C474.829 433.211 476.384 432.967 476.549 433.057C476.718 433.151 476.929 433.166 477.143 433.606C477.357 434.046 477.297 434.537 477.297 434.537C477.297 434.537 477.818 434.953 477.697 435.552C477.697 435.552 478.167 435.965 477.92 436.622C477.92 436.622 478.369 437.041 478.149 437.502C478.149 437.502 477.339 438.017 477.092 438.295C476.848 438.572 475.085 439.53 473.256 440.187C473.256 440.187 471.319 440.223 470.939 437.454Z" fill="#EEA886"/>
<path d="M473.922 436.318C473.922 436.318 473.943 437.445 473.789 437.767C473.633 438.087 476.079 438.798 476.079 438.798C476.079 438.798 475.296 436.327 473.922 436.318Z" fill="#CF8C6C"/>
<path d="M428.308 546.719L429.375 543.392L433.891 544.125L433.216 547.123L428.308 546.719Z" fill="#555C94"/>
<path d="M465.328 546.324L465.581 548.153L470.526 547.328L470.264 544.598L465.328 546.324Z" fill="#555C94"/>
<path d="M454.619 495.112C454.619 495.112 453.893 499.081 453.046 503.483C452.902 504.252 452.751 505.032 452.597 505.806C451.772 510.052 450.937 514.135 450.63 514.979C449.928 516.899 434.789 544.643 434.789 544.643C434.789 544.643 428.597 544.17 428.365 543.374C428.365 543.374 441.057 513.253 440.984 512.153C440.915 511.056 442.536 480.175 442.536 480.175C442.536 480.175 454.285 493.328 454.619 495.112Z" fill="#354C70"/>
<path d="M461.538 478.409C461.538 478.409 467.462 508.745 467.968 511.068C468.474 513.391 470.719 544.465 470.719 544.465C470.719 544.465 469.387 547.21 464.47 546.177C464.47 546.177 457.765 512.789 457.202 511.671C455.008 507.328 444.245 486.292 443.199 483.291C442.157 480.289 442.464 476.785 442.464 476.785C442.464 476.785 450.461 472.292 461.538 478.409Z" fill="#354C70"/>
<path d="M459.049 439.117C459.049 439.117 461.646 445.593 462.3 445.403C462.951 445.21 470.421 436.441 470.421 436.441C470.421 436.441 473.835 440.705 473.38 441.196C472.741 441.877 463.921 456.54 462.71 456.275C461.495 456.01 456.072 447.048 456.072 447.048C456.072 447.048 455.767 440.286 459.049 439.117Z" fill="#DEB135"/>
<path d="M447.936 426.747C447.936 426.747 454.673 431.897 456.533 433.94C458.392 435.983 463.526 444.454 463.156 447.003C461.736 456.773 461.062 465.099 461.019 471.764C460.983 477.571 462.833 479.054 461.679 479.138C460.356 479.237 443.401 485.382 440.894 486.129C440.894 486.129 442.536 465.683 443.371 463.324C444.203 460.964 440.704 436.239 447.936 426.747Z" fill="#F2C344"/>
<path d="M491.329 416.978L492.842 424.596L494.355 432.214C494.355 432.214 485.704 429.505 475.887 431.454L475.221 428.094L474.549 424.716C484.366 422.767 491.329 416.978 491.329 416.978Z" fill="#D9D0C4"/>
<path d="M465.581 548.153C465.581 548.153 469.315 547.43 469.444 547.316C469.574 547.204 470.375 545.731 470.954 545.987C471.529 546.243 471.538 548.039 472.102 548.343C472.665 548.645 477.119 551.655 477.667 552.203C478.216 552.752 481.587 552.429 481.976 553.382C482.362 554.334 482.395 556.582 477.363 556.051C472.328 555.524 466.582 556.344 465.5 555.747C464.415 555.153 465.235 549.603 465.581 548.153Z" fill="#FFB355"/>
<path d="M428.248 546.638C428.248 546.638 432.047 546.52 432.195 546.43C432.342 546.339 433.367 545.01 433.897 545.357C434.425 545.704 434.144 547.478 434.654 547.867C435.163 548.256 439.077 551.941 439.529 552.568C439.981 553.198 443.365 553.421 443.594 554.421C443.823 555.422 443.494 557.649 438.613 556.32C433.729 554.994 427.925 554.882 426.952 554.12C425.976 553.361 427.675 548.012 428.248 546.638Z" fill="#FFB355"/>
<path d="M457.756 479.816C457.756 479.816 458.211 481.663 458.94 482.064C459.67 482.462 455.541 486.412 455.541 486.412C455.541 486.412 453.866 482.751 453.911 482.383C453.956 482.013 457.756 479.816 457.756 479.816Z" fill="#EEA987"/>
<path d="M444.944 434.736C444.944 434.736 440.108 457.737 439.71 460.093C439.336 462.323 453.887 483.604 453.887 483.604L458.726 480.735C458.726 480.735 446.984 459.382 447.002 458.406C447.02 457.433 452.64 438.888 452.64 438.888C452.64 438.888 454.987 434.85 450.82 432.889C446.652 430.93 444.944 434.736 444.944 434.736Z" fill="#FFD255"/>
<path d="M460.595 481.401C460.595 481.401 462.167 489.224 462.071 491.619C461.972 494.015 453.043 487.85 453.495 485.466L460.595 481.401Z" fill="#3C5780"/>
<path d="M447.936 426.747C447.936 426.747 460.209 440.154 459.453 438.668C456.759 433.368 454.875 432.473 454.915 431.484C454.945 430.728 455.192 428.543 455.24 427.805C455.337 426.401 455.49 425.241 455.49 425.241C455.49 425.241 449.397 416.683 449.666 419.597C449.934 422.514 447.936 426.747 447.936 426.747Z" fill="#EEA886"/>
<path d="M459.624 410.966C459.624 410.966 461.312 414.929 461.336 415.854C461.36 416.782 461.125 417.493 461.266 418.56C461.417 419.666 462.342 421.989 462.231 422.631C462.092 423.406 460.459 423.002 460.233 424.279C460.007 425.557 458.82 427.959 458.229 428.007C456.71 428.134 450.892 425.759 450.521 424.542C450.151 423.324 448.045 416.538 447.388 415.248C446.731 413.956 457.639 406.883 458.63 408.923C459.624 410.966 459.624 410.966 459.624 410.966Z" fill="#EEA886"/>
<path d="M444.793 413.904C444.022 410.545 447.888 410.132 447.888 410.132C447.888 410.132 450.401 407.203 456.421 407.549C462.442 407.899 461.523 415.755 461.523 415.755C461.523 415.755 457.358 415.131 455.547 415.589C455.547 415.589 455.324 418.943 455.52 419.774L453.251 419.573C453.251 419.573 453.504 416.595 452.417 416.454C451.326 416.315 450.958 422.758 448.93 424.177C448.93 424.177 448.909 423.722 448.656 423.276C448.249 422.568 447.62 421.378 447.077 419.988C446.191 418.042 445.188 415.628 444.793 413.904Z" fill="#FCCCA2"/>
<path d="M453.926 417.174C453.926 417.174 453.083 414.902 451.088 416.375C449.635 417.448 451.127 421.284 452.54 421.266C453.953 421.248 454.529 419.16 453.926 417.174Z" fill="#EEA886"/>
<path d="M450.193 423.481C450.193 423.481 450.491 424.686 450.817 424.969C451.142 425.25 452.67 426.491 455.321 427.323L455.062 429.73C455.062 429.73 449.928 427.715 450.193 423.481Z" fill="#C48A6F"/>
<path d="M477.255 439.786L478.122 439.373L474.196 431.044L471.997 432.081L475.323 439.141C475.694 439.928 476.471 440.157 477.255 439.786Z" fill="#E8734D"/>
<path d="M476.287 433.181C476.287 433.181 473.832 434.531 474 434.953C474.166 435.375 474.485 435.429 474.485 435.429L473.726 436.441C473.726 436.441 473.603 437.397 474.678 437.252C474.678 437.252 474.47 438.132 475.492 437.87C475.492 437.87 475.615 438.512 476.11 438.472C476.604 438.436 478.149 437.502 478.149 437.502C478.149 437.502 478.388 437.159 477.92 436.622C477.92 436.622 478.195 436.007 477.698 435.552C477.698 435.552 477.839 435.025 477.297 434.537C477.297 434.537 477.523 433.338 476.549 433.057C476.549 433.057 476.39 433.124 476.287 433.181Z" fill="#DB9C7C"/>
<path d="M469.098 432.859L477.758 431.243L476.348 424.141L467.757 426.1L469.098 432.859Z" fill="#E8734D"/>
<path d="M471.99 435.004C471.99 435.004 473.913 434.95 474.977 435.381C475.215 435.48 475.432 435.619 475.432 435.878C475.432 436.137 475.055 436.468 474.223 436.535C473.392 436.598 472.346 437.065 472.346 437.065C472.346 437.065 471.472 436.881 471.99 435.004Z" fill="#EEA886"/>
<path d="M453.047 503.483C452.902 504.251 452.751 505.032 452.598 505.806L447.68 492.792C448.331 494.105 453.047 503.483 453.047 503.483Z" fill="#293B57"/>
<path d="M541.614 478.786H621.009L595.987 555.636L598.326 556.398L624.399 476.324H539.827L514.004 555.636L516.342 556.398L541.614 478.786Z" fill="#FFBB55"/>
<path d="M568.637 555.636L543.612 478.786H623.007L648.279 556.398L650.62 555.636L624.794 476.324H540.222L566.295 556.398L568.637 555.636Z" fill="#FFBB55"/>
<path d="M534.229 502.986H631.405V500.524H534.229V502.986Z" fill="#FFBB55"/>
<path d="M524.216 529.705H640.481V527.243H524.216V529.705Z" fill="#FFBB55"/>
<path d="M624.45 326.263C624.45 326.263 625.011 324.338 624.152 323.581C623.423 322.936 622.947 321.577 622.799 321.158C622.6 320.601 621.353 319.109 622.055 318.853C622.757 318.597 624.23 321.21 624.646 321.698C625.065 322.183 625.538 319.353 626.032 318.904C626.526 318.455 631.167 319.504 630.618 321.409C630.07 323.313 628.226 324.985 628.196 325.341C628.166 325.694 627.849 326.742 627.849 326.742L624.45 326.263Z" fill="#E09E7F"/>
<path d="M625.8 319.32C625.8 319.32 627.867 313.601 628.325 313.336C628.78 313.07 629.085 313.2 628.913 313.742C628.741 314.285 627.075 319.326 627.075 319.326C627.075 319.326 630.661 312.968 630.986 312.67C631.179 312.495 631.779 312.712 631.715 313.01C631.652 313.311 628.458 319.814 628.458 319.814C628.458 319.814 631.815 313.884 632.164 313.715C632.469 313.568 632.972 313.905 632.752 314.363C632.532 314.821 629.727 320.498 629.727 320.498C629.727 320.498 632.441 316.337 632.821 316.367C633.053 316.385 633.581 316.551 632.848 317.603C632.113 318.654 630.64 321.318 630.64 321.318L625.8 319.32Z" fill="#E09E7F"/>
<path d="M544.66 378.202C544.66 378.202 542.825 379.009 541.963 378.259C541.228 377.62 539.821 377.322 539.384 377.231C538.806 377.108 537.163 376.068 537.004 376.797C536.841 377.527 539.625 378.645 540.162 378.994C540.698 379.344 537.956 380.184 537.576 380.733C537.194 381.281 538.842 385.744 540.659 384.952C542.473 384.159 543.889 382.11 544.235 382.035C544.585 381.959 545.582 381.51 545.582 381.51L544.66 378.202Z" fill="#E09E7F"/>
<path d="M537.956 380.447C537.956 380.447 532.556 383.246 532.354 383.734C532.149 384.223 532.318 384.506 532.833 384.265C533.349 384.024 538.128 381.712 538.128 381.712C538.128 381.712 532.297 386.097 532.041 386.461C531.893 386.675 532.189 387.242 532.475 387.139C532.764 387.037 538.794 383.017 538.794 383.017C538.794 383.017 533.355 387.124 533.234 387.492C533.126 387.811 533.527 388.266 533.951 387.989C534.376 387.712 539.637 384.186 539.637 384.186C539.637 384.186 535.868 387.423 535.949 387.796C535.997 388.022 536.229 388.526 537.176 387.661C538.122 386.793 540.571 384.985 540.571 384.985L537.956 380.447Z" fill="#E09E7F"/>
<path d="M542.726 378.295L545.615 381.86C545.615 381.86 564.216 374.173 567.061 371.506C567.061 371.506 567.814 371.217 571.662 368.164C572.484 367.51 573.289 366.893 574.027 366.353C574.027 366.353 574.217 366.181 574.527 365.904C574.53 365.904 574.53 365.901 574.53 365.901C575.913 364.666 579.665 361.318 579.665 361.318C579.665 361.318 588.994 356.364 585.191 351.012C585.191 351.012 583.609 349.584 581.184 350.738C578.755 351.889 575.244 354.923 574.413 355.722C573.581 356.518 568.191 361.116 567.901 361.408C566.826 362.499 563.161 365.763 561.272 367.188C557.937 369.701 542.726 378.295 542.726 378.295Z" fill="#323657"/>
<path d="M595.915 340.474C595.912 340.48 595.912 340.48 595.912 340.48C595.201 341.996 594.336 343.433 593.384 344.654C590.094 348.875 582.425 348.981 582.313 337.394C582.292 335.198 582.564 333.42 583.007 331.976C584.576 326.832 588.265 325.977 588.265 325.977C590.992 325.826 595.761 326.501 597.349 330.051C598.479 332.573 597.663 336.753 595.915 340.474Z" fill="#EEA987"/>
<path d="M595.915 340.474C595.912 340.48 595.912 340.48 595.912 340.48C595.912 340.48 595.52 340.586 594.104 337.726C593.818 337.151 593.601 337.563 593.477 337.307L591.221 336.427C591.221 336.427 593.453 332.697 590.533 331.66C587.556 330.606 583.007 331.977 583.007 331.977C583.98 322.771 588.265 325.977 588.265 325.977C590.992 325.826 596.819 325.992 598.407 329.542C599.537 332.064 597.663 336.753 595.915 340.474Z" fill="#665249"/>
<path d="M593.019 335.574C593.185 334.8 594.716 334.134 595.367 335.797C596.018 337.461 593.842 339.227 593.27 338.862C592.694 338.497 592.742 336.855 593.019 335.574Z" fill="#EEA987"/>
<path d="M563.686 470.351C563.686 470.351 560.522 472.937 557.861 473.512C555.2 474.088 553.805 475.45 553.784 477.029C553.763 478.608 561.441 479.647 564.487 478.056C569.031 475.679 569.492 476.396 569.995 475.209C570.499 474.021 570.095 470.879 570.128 470.499C570.167 470.035 563.686 470.351 563.686 470.351Z" fill="#2E2626"/>
<path d="M563.903 469.492C563.903 469.492 563.556 470.782 563.607 470.809C563.659 470.836 569.604 471.502 569.423 470.465C569.278 469.628 569.07 468.715 569.07 468.715L563.903 469.492Z" fill="#2E2626"/>
<path d="M601.499 472.421C601.499 472.421 599.528 475.401 597.03 476.001C594.568 476.592 593.658 477.529 593.538 479.017C593.417 480.503 599.344 482.45 603.511 479.84C606.247 478.122 607.269 478.222 607.82 477.131C608.369 476.04 607.953 472.969 608.007 472.614C608.076 472.177 601.499 472.421 601.499 472.421Z" fill="#2E2626"/>
<path d="M602.159 471.336C602.159 471.336 602.035 472.59 602.083 472.62C602.131 472.647 607.618 473.62 607.585 472.629C607.558 471.842 607.239 470.866 607.239 470.866L602.159 471.336Z" fill="#2F6B8C"/>
<path d="M579.499 395.637C579.499 395.637 572.038 414.139 569.896 420.422C567.073 428.688 565.521 435.971 565.165 439.934C564.719 444.918 562.972 468.44 562.658 469.896C562.345 471.354 571.029 470.866 571.029 470.866C571.029 470.866 575.913 441.206 577.245 435.896C578.484 430.954 590.211 408.531 591.341 409.881C592.471 411.228 596.226 434.181 597.063 438.081C597.901 441.98 600.146 472.665 600.146 472.665C600.146 472.665 607.766 473.889 609.3 472.665C609.3 472.665 608.098 445.304 607.564 437.993C607.362 435.209 609.327 404.65 604.617 392.325C602.128 385.814 579.499 395.637 579.499 395.637Z" fill="#F2C344"/>
<path d="M587.547 349.18C587.547 349.18 581.093 350.506 580.258 351.247C579.348 352.037 577.534 360.019 577.438 362.174C577.342 364.325 577.896 373.197 578.806 376.547C579.713 379.895 578.001 393.835 577.426 398.476C577.426 398.476 588.614 403.559 607.528 399.597C607.528 399.597 604.207 385.169 604.765 380.579C605.482 374.7 607.392 361.827 607.392 361.827C607.392 361.827 609.128 349.56 607.528 349.864C602.285 350.852 595.511 349.18 595.511 349.18H587.547Z" fill="#323657"/>
<path d="M586.101 350.675C586.101 350.675 588.084 352.163 594.704 349.243C594.704 349.243 594.044 345.639 595.346 341.396C596.644 337.156 586.806 345.817 586.806 345.817C586.912 345.892 586.933 346.317 586.873 346.908C586.866 346.947 586.863 346.983 586.857 347.022C586.809 347.45 586.722 347.953 586.592 348.469C586.577 348.532 586.562 348.595 586.544 348.662C586.173 350.078 586.101 349.436 586.101 350.675Z" fill="#EEA886"/>
<path d="M586.592 348.469C591.338 349.077 593.926 343.967 594.002 343.816C590.754 348.55 586.86 347.013 586.86 347.013C586.812 347.441 586.722 347.953 586.592 348.469Z" fill="#A77860"/>
<path d="M586.131 349.487C586.131 349.487 584.613 351.744 586.728 352.127C588.843 352.513 593.158 352.043 595.512 349.18C595.512 349.18 589.313 347.99 586.131 349.487Z" fill="#EEA886"/>
<path d="M597.042 361.333C596.37 359.947 598.07 356.331 600.947 353.802C603.225 351.804 605.654 350.563 606.841 350.117C608.025 349.674 616.122 347.064 616.514 346.052C617.008 344.768 619.159 338.47 619.334 337.919C619.68 336.819 623.721 324.356 623.721 324.356L628.756 325.51C628.756 325.51 625.002 343.53 624.535 345.841C624.227 347.363 623.968 350.051 620.578 352.214C617.131 354.411 609.58 359.992 608.821 360.287C608.061 360.579 600.034 367.51 597.042 361.333Z" fill="#323657"/>
<path d="M706.473 544.986C706.473 544.986 705.129 545.402 703.665 546.472C702.2 547.542 700.23 549.289 698.066 549.681C695.903 550.073 693.613 550.04 693.962 552.357C694.315 554.674 701.438 555.816 707.862 553.855C714.29 551.893 714.383 551.715 714.383 551.143C714.383 550.573 713.413 544.833 713.117 544.637C712.825 544.441 706.473 544.986 706.473 544.986Z" fill="#4B5182"/>
<path d="M743.906 542.85C743.906 542.85 741.432 545.411 739.299 545.842C737.166 546.273 734.369 546.966 734.225 548.364C734.083 549.766 734.972 550.13 735.053 550.215C735.587 550.624 745.759 550.995 749.695 549.512C752.108 548.599 749.327 541.039 749.327 541.039L743.906 542.85Z" fill="#4B5182"/>
<path d="M721.783 432.813C721.783 432.813 714.506 440.922 714.747 438.523C714.892 437.08 714.217 434.579 713.66 432.813C713.289 431.644 712.97 430.8 712.97 430.8C713.03 430.686 720.888 419.536 720.602 423.023C720.316 426.53 721.783 432.813 721.783 432.813Z" fill="#EEA987"/>
<path d="M719.096 493.931C719.096 493.931 715.899 505.071 716.438 507.048C716.977 509.028 722.473 516.236 723.218 517.32C724.221 518.773 740.146 543.772 740.327 544.191C740.504 544.61 749.505 542.446 749.864 540.526C749.864 540.526 737.25 514.635 734.255 511.218C731.257 507.798 730.561 504.254 731.04 500.295C731.522 496.338 737.371 483.513 736.473 478.237C735.572 472.96 719.635 488.362 719.096 493.931Z" fill="#F2C344"/>
<path d="M713.168 479.099C713.168 479.099 691.69 495.374 689.286 498.701C686.881 502.028 689.578 506.976 689.937 508.594C690.298 510.212 704.78 542.256 704.957 545.044C704.957 545.044 714.675 545.854 716.384 543.697C716.384 543.697 705.813 513.28 704.282 508.063C702.755 502.847 708.013 501.579 712.24 499.689C716.468 497.803 735.02 486.915 736.099 482.817C737.087 479.078 736.111 476.26 736.111 476.26C736.111 476.26 730.913 472.9 713.168 479.099Z" fill="#F2C344"/>
<path d="M712.02 446.177C712.02 446.177 697.614 441.145 697.864 438.017C698.114 434.889 710.758 419.449 710.758 419.449L715.037 422.233L708.884 438.355L719.798 442.465L712.02 446.177Z" fill="#22243B"/>
<path d="M722.621 432.367C722.621 432.367 720.967 428.998 720.937 428.278C720.937 428.278 713.687 433.985 712.97 435.335C712.97 435.335 713.352 437.824 713.084 439.054L722.621 432.367Z" fill="#323657"/>
<path d="M722.621 432.367C722.621 432.367 721.184 431.647 718.963 433.087C716.745 434.525 709.122 442.161 707.745 442.64C707.745 442.64 711.026 456.929 711.204 460.705C711.385 464.484 713.859 484.249 712.418 486.768C712.418 486.768 717.948 485.258 724.769 483.001C731.878 480.654 738.468 476.667 738.468 476.667C738.468 476.667 733.613 464.785 733.125 460.964C732.613 456.981 728.647 437.189 722.621 432.367Z" fill="#323657"/>
<path d="M704.189 423.131C704.189 423.131 703.002 421.905 702.821 419.042C702.625 415.926 702.734 417.029 702.734 417.029L704.189 423.131Z" fill="#EEA987"/>
<path d="M711.912 421.709C711.912 421.709 708.374 419.895 706.612 419.895C704.737 419.898 702.836 421.194 702.836 421.194C702.836 421.194 702.038 418.322 702.716 417.18C703.394 416.038 711.912 421.709 711.912 421.709Z" fill="#5C5C5C"/>
<path d="M718.071 425.177C718.071 425.177 717.158 430.348 713.669 432.807C713.666 432.81 713.663 432.81 713.66 432.813C713.289 431.644 712.97 430.8 712.97 430.8C713.024 430.77 716.531 428.83 718.071 425.177Z" fill="#A87860"/>
<path d="M709.345 415.17C709.345 415.17 706.976 422.209 706.741 423.842C706.503 425.472 701.652 422.317 701.652 422.317C701.652 422.317 703.858 416.339 704.34 413.425C704.825 410.514 709.345 415.17 709.345 415.17Z" fill="#EFAA88"/>
<path d="M724.676 442.263C724.302 440.259 722.157 438.144 720.12 438.027C715.648 437.767 705.542 437.74 705.214 437.165C704.798 436.433 709.703 416.791 709.703 416.791C709.703 416.791 705.575 415.107 703.005 414.872C703.005 414.872 691.974 444.014 693.281 444.891C698.036 448.085 719.225 448.887 719.225 448.887C719.225 448.887 723.691 447.841 724.537 444.858C724.812 443.888 724.818 443.02 724.676 442.263Z" fill="#323657"/>
<path d="M707.461 404.756C707.461 404.756 706.841 405.283 706.681 405.648C706.681 405.648 706.443 406.332 706.244 406.805C706.181 406.955 706.121 407.088 706.075 407.166C705.88 407.501 705.352 408.176 705.108 409.11C704.864 410.044 704.34 413.425 704.34 413.425L707.145 414.383L709.345 415.17C709.345 415.17 713.479 411.807 713.804 410.966C713.837 410.882 713.865 410.801 713.886 410.719C714.094 409.978 713.937 409.339 714 408.938C714.024 408.791 714.154 407.311 713.837 406.998C713.398 406.564 712.918 406.443 712.503 406.531C712.503 406.531 711.608 405.72 710.794 405.681C710.794 405.681 709.99 404.906 708.965 405.144C708.965 405.144 708.061 404.451 707.461 404.756Z" fill="#EFAA88"/>
<path d="M703.752 416.565C703.752 416.565 702.845 420.956 704.032 421.242C705.012 421.477 704.313 425.732 704.255 426.41C704.201 427.088 706.081 427.003 706.573 427.281C707.061 427.561 709.601 432.03 711.086 431.743C712.572 431.457 718.387 427.25 719.605 424.882C720.822 422.51 719.782 413.772 717.553 410.623C715.323 407.471 705.37 408.881 703.752 416.565Z" fill="#EEA886"/>
<path d="M703.553 417.213C703.553 417.213 702.026 416.125 702.948 411.15C704.011 405.415 714.597 408.691 715.443 408.658C716.29 408.625 721.696 408.124 721.343 416.035C720.967 424.529 720.569 424.37 720.569 424.37C720.569 424.37 718.743 419.859 717.227 419.955C715.582 420.057 712.939 420.473 712.939 420.473C712.939 420.473 713.211 416.532 710.978 416.655C708.742 416.779 705.427 415.8 703.553 417.213Z" fill="#323657"/>
<path d="M713.916 420.714C713.895 420.268 713.816 418.271 715.353 418.114C716.887 417.957 717.083 420.386 716.356 422.058C715.63 423.728 714.027 423.201 713.916 420.714Z" fill="#EEA886"/>
<path d="M145.113 390.487H175.301V416.978L170.692 412.368H145.113V390.487Z" fill="#FFCE55"/>
<path d="M212.083 541.726L206.014 501.359L207.183 501.178L213.252 541.545L212.083 541.726Z" fill="#5C5049"/>
<path d="M204.672 541.726L198.602 501.359L199.771 501.178L205.84 541.545L204.672 541.726Z" fill="#5C5049"/>
<path d="M168.166 541.726L166.997 541.545L173.066 501.178L174.235 501.359L168.166 541.726Z" fill="#5C5049"/>
<path d="M207.913 501.768L212.668 451.746C212.668 451.746 204.352 450.658 199.327 450.927L191.775 501.768H207.913Z" fill="#FAB46C"/>
<path d="M207.913 499.228H191.775V501.768H207.913V499.228Z" fill="#FAB46C"/>
<path d="M181.218 499.732L178.696 452.06C178.696 452.06 199.74 449.776 212.667 451.747L181.218 499.732Z" fill="#FAB46C"/>
<path d="M198.024 436.625C198.024 436.625 201.273 427.094 195.072 424.141C188.871 421.185 183.605 425.458 182.611 427.769C181.616 430.077 181.879 434.281 182.728 437.213C183.576 440.142 183.453 444.602 181.609 446.096C179.767 447.588 177.482 450.065 177.595 455.109C177.665 458.237 189.907 447.103 189.907 447.103L198.024 436.625Z" fill="#FCCCA2"/>
<path d="M189.749 539.179C189.749 539.179 189.556 545.914 190.518 546.318C191.479 546.725 195.119 544.384 196.725 542.066C198.33 539.749 194.713 534.358 194.119 531.387C193.871 530.139 191.043 527.9 189.663 528.542C188.284 529.184 187.278 530.829 187.278 530.829C187.278 530.829 190.787 533.234 189.749 539.179Z" fill="#D4C3BD"/>
<path d="M187.278 530.829C187.278 530.829 188.472 533.126 189.086 534.91C189.7 536.693 189.815 541.632 190.202 541.976C190.588 542.317 193.638 540.78 194.046 538.932C194.453 537.085 193.216 533.394 192.038 531.453C190.861 529.513 189.663 528.542 189.663 528.542C189.663 528.542 187.584 528.946 187.278 530.829Z" fill="#DE9673"/>
<path d="M194.119 531.387L197.397 536.169L196.776 536.594L194.243 532.897L194.119 531.387Z" fill="#D4C3BD"/>
<path d="M182.321 478.493C182.321 478.493 183.924 481.199 182.321 483.17C180.719 485.141 169.943 490.556 170.022 493.681C170.101 496.809 172.075 501.702 172.784 502.944C173.494 504.185 176.11 509.335 177.47 512.352C178.83 515.365 186.692 529.79 188.229 533.041C189.766 536.293 188.819 520.036 188.819 520.036L180.958 496.98L199.327 479.084C199.327 479.084 197.104 474.136 182.321 478.493Z" fill="#DE9673"/>
<path d="M189.31 447.962C189.31 447.962 184.213 449.092 182.19 450.276C180.167 451.457 175.674 456.896 175.674 459.235C175.674 461.573 195.322 463.758 195.322 463.758L199.046 477.354C199.046 477.354 208.977 474.931 210.159 472.921C211.341 470.912 206.249 456.604 205.539 453.591C204.83 450.574 201.115 448.543 196.977 447.962C192.839 447.383 189.31 447.962 189.31 447.962Z" fill="#FFD255"/>
<path d="M201.357 478.942C201.357 478.942 201.002 481.266 201.948 482.251C202.894 483.236 207.25 488.983 204.943 494.627C202.825 499.81 198.716 499.71 198.716 499.71H192.358C192.358 499.71 194.204 509.04 193.608 515.19C193.011 521.337 190.207 535.377 190.148 536.085C190.089 536.796 187.46 539.011 186.692 537.89C186.692 537.89 186.62 529.434 186.206 526.243C185.793 523.052 184.032 510.281 183.5 508.389C182.967 506.5 179.835 500.765 179.835 500.174C179.835 499.581 176.775 490.327 183.454 487.961C190.134 485.599 192.495 478.99 201.357 478.942Z" fill="#EEA886"/>
<path d="M183.526 544.408C183.526 544.408 179.141 549.524 179.634 550.443C180.127 551.362 184.429 551.833 187.134 551.04C189.839 550.251 190.416 543.784 191.825 541.099C192.415 539.975 191.624 536.452 190.148 536.085C188.672 535.717 186.855 536.362 186.855 536.362C186.855 536.362 188.072 540.439 183.526 544.408Z" fill="#E6D3CC"/>
<path d="M186.855 536.362C186.855 536.362 186.339 538.899 185.695 540.674C185.05 542.446 182.035 546.357 182.12 546.867C182.205 547.379 185.544 548.099 187.022 546.921C188.499 545.74 189.859 542.093 190.164 539.842C190.469 537.594 190.148 536.085 190.148 536.085C190.148 536.085 188.277 535.09 186.855 536.362Z" fill="#EEA886"/>
<path d="M191.825 541.099L191.365 546.879L190.615 546.818L190.971 542.35L191.825 541.099Z" fill="#E6D3CC"/>
<path d="M204.943 494.627C202.943 499.879 198.716 499.71 198.716 499.71H192.358C192.358 499.71 189.706 495.507 183.211 494.786C181.772 494.627 180.143 494.636 178.313 494.901C178.292 494.904 178.269 494.907 178.247 494.913C169.618 496.191 171.284 499.358 171.311 499.439C170.594 497.688 169.84 494.904 170.022 493.406C170.849 486.575 180.718 485.141 182.321 483.17C183.924 481.199 182.321 478.493 182.321 478.493C197.104 474.136 199.327 479.084 199.327 479.084C199.975 478.993 201.636 478.038 202.342 478.035C202.342 478.035 203.082 479.65 203.603 481.109C204.063 482.395 207.113 488.928 204.943 494.627Z" fill="#323657"/>
<path d="M198.81 457.02L200.997 477.354H172.209L170.022 457.02H198.81Z" fill="#DED1C5"/>
<path d="M203.288 475.525H198.48V477.354H203.288V475.525Z" fill="#DED1C5"/>
<path d="M244.055 480.123H152.369V477.354H244.055V480.123Z" fill="#BC8551"/>
<path d="M192.495 425.765C192.495 425.765 198.945 427.675 198.024 436.625C197.102 445.575 192.89 445.117 192.495 445.18C192.101 445.246 187.099 445.575 185.519 434.718C183.94 423.857 192.495 425.765 192.495 425.765Z" fill="#EEA886"/>
<path d="M195.569 443.535C195.569 443.535 195.228 446.5 195.798 448.341C196.368 450.185 188.286 450.236 188.29 448.721C188.295 446.997 189.117 445.56 188.343 442.609C187.569 439.659 195.569 443.535 195.569 443.535Z" fill="#EEA886"/>
<path d="M190.83 429.757C190.83 429.757 194.335 435.332 198.024 436.625C198.024 436.625 200.038 427.271 191.719 425.31C183.4 423.351 184.704 434.76 185.325 437.8C185.325 437.8 187.057 433.325 190.83 429.757Z" fill="#FCCCA2"/>
<path d="M189.3 443.911C189.3 443.911 191.852 446.572 195.115 444.192C195.115 444.192 194.845 445.891 192.498 446.108C190.151 446.328 189.3 443.911 189.3 443.911Z" fill="#A77860"/>
<path d="M186.13 428.917C186.13 428.917 187.975 425.343 191.09 425.183C194.205 425.026 196.057 427.726 196.057 427.726C196.057 427.726 194.841 424.686 191.094 424.686C187.346 424.686 186.13 428.917 186.13 428.917Z" fill="#23344A"/>
<path d="M196.624 447.916C196.624 447.916 196.509 454.112 191.596 454.296C186.683 454.48 187.705 448.353 187.705 448.353C187.705 448.353 191.299 446.898 196.624 447.916Z" fill="#EEA886"/>
<path d="M242.019 550.007H244.055V480.123H242.019V550.007Z" fill="#807066"/>
<path d="M152.369 550.007H154.406V480.123H152.369V550.007Z" fill="#807066"/>
<path d="M410.253 120.748C401.066 118.081 391.42 123.39 388.753 132.578C387.129 138.174 388.413 144.18 392.189 148.636L392.33 148.805L392.363 149.022C392.815 152.123 393.231 156.715 392.644 160.979L392.635 161.036C392.297 162.585 392.701 164.207 393.767 165.599C394.864 167.027 396.522 168.046 398.432 168.458C402.334 169.305 406.083 167.349 406.785 164.104L406.791 164.074L406.8 164.047C407.746 160.874 409.397 157.405 411.714 153.735L411.844 153.527L412.07 153.434C416.96 151.4 420.609 147.323 422.083 142.248C424.746 133.057 419.44 123.414 410.253 120.748ZM397.41 169.793C395.434 169.221 393.722 168.082 392.541 166.539C391.2 164.788 390.694 162.73 391.116 160.738C391.661 156.76 391.291 152.451 390.863 149.462C386.867 144.629 385.523 138.171 387.271 132.147C390.173 122.14 400.677 116.36 410.684 119.262C420.691 122.167 426.47 132.668 423.565 142.679C421.986 148.124 418.102 152.518 412.892 154.766C410.726 158.228 409.177 161.488 408.288 164.46C407.39 168.522 402.828 170.993 398.107 169.968C397.872 169.92 397.639 169.86 397.41 169.793Z" fill="#FFD255"/>
<path d="M395.304 162.766L397.109 142.103L400.583 146.461L403.792 144.116L405.477 147.301L410.102 144.797L403.482 164.484L402.017 163.99L407.384 148.028L404.841 149.405L403.262 146.419L400.297 148.582L398.311 146.093L396.844 162.902L395.304 162.766Z" fill="#FFD255"/>
<path d="M403.898 174.823L390.799 171.984L391.941 166.705L405.043 169.543L403.898 174.823Z" fill="#FFD255"/>
<path d="M406.477 173.105L389.163 169.353L391.004 160.856L408.318 164.607L406.477 173.105Z" fill="#FFD255"/>
<path d="M157.351 303.123L156.417 302.804L164.249 280.002L181.75 275.153L187.771 250.154L201.248 244.019L204.058 224.604L205.036 224.745L202.149 244.697L188.618 250.856L182.574 275.952L165.015 280.815L157.351 303.123Z" fill="#FFD078"/>
<path d="M184.183 273.86C185.116 274.978 184.969 276.639 183.853 277.573C182.737 278.507 181.076 278.359 180.142 277.244C179.208 276.126 179.356 274.466 180.472 273.532C181.587 272.598 183.249 272.745 184.183 273.86Z" fill="white"/>
<path d="M180.789 273.912C179.883 274.668 179.763 276.021 180.521 276.925C181.278 277.832 182.631 277.953 183.536 277.193C184.441 276.437 184.561 275.084 183.804 274.18C183.046 273.273 181.694 273.152 180.789 273.912ZM184.17 277.953C182.847 279.059 180.87 278.884 179.763 277.561C178.656 276.238 178.832 274.261 180.155 273.152C181.478 272.046 183.455 272.221 184.561 273.544C185.668 274.867 185.493 276.844 184.17 277.953Z" fill="#FFD078"/>
<path d="M190.288 248.964C191.222 250.079 191.074 251.742 189.958 252.676C188.842 253.61 187.181 253.463 186.247 252.345C185.313 251.23 185.461 249.569 186.577 248.635C187.693 247.701 189.354 247.849 190.288 248.964Z" fill="white"/>
<path d="M186.894 249.012C185.989 249.771 185.869 251.124 186.626 252.028C187.384 252.932 188.736 253.053 189.641 252.297C190.547 251.54 190.667 250.187 189.909 249.28C189.152 248.376 187.799 248.256 186.894 249.012ZM190.275 253.053C188.953 254.162 186.975 253.987 185.868 252.664C184.761 251.341 184.937 249.362 186.26 248.256C187.583 247.15 189.56 247.324 190.667 248.647C191.774 249.97 191.598 251.947 190.275 253.053Z" fill="#FFD078"/>
<path d="M203.555 242.66C204.489 243.778 204.341 245.438 203.226 246.372C202.11 247.306 200.448 247.159 199.514 246.041C198.581 244.926 198.728 243.265 199.844 242.331C200.96 241.397 202.622 241.545 203.555 242.66Z" fill="white"/>
<path d="M200.161 242.711C199.256 243.467 199.136 244.82 199.893 245.724C200.651 246.631 202.003 246.752 202.908 245.993C203.813 245.236 203.934 243.883 203.176 242.979C202.419 242.072 201.066 241.952 200.161 242.711ZM203.543 246.752C202.219 247.858 200.243 247.683 199.136 246.36C198.028 245.037 198.204 243.061 199.527 241.952C200.85 240.846 202.827 241.021 203.934 242.343C205.041 243.666 204.865 245.643 203.543 246.752Z" fill="#FFD078"/>
<path d="M166.753 278.938C167.687 280.056 167.539 281.716 166.423 282.65C165.308 283.585 163.646 283.437 162.713 282.319C161.779 281.204 161.926 279.544 163.042 278.609C164.158 277.675 165.82 277.823 166.753 278.938Z" fill="white"/>
<path d="M163.359 278.989C162.454 279.745 162.334 281.098 163.091 282.002C163.849 282.909 165.201 283.03 166.106 282.271C167.012 281.514 167.132 280.161 166.375 279.254C165.617 278.35 164.264 278.23 163.359 278.989ZM166.741 283.03C165.418 284.136 163.441 283.961 162.333 282.638C161.226 281.315 161.402 279.339 162.725 278.23C164.048 277.124 166.025 277.299 167.132 278.621C168.239 279.944 168.063 281.921 166.741 283.03Z" fill="#FFD078"/>
<path d="M667.485 240.071H709.878V237.1H667.485V240.071Z" fill="#FFD887"/>
<path d="M667.485 255.196H709.878V242.699H667.485V255.196Z" fill="#FFD887"/>
<path d="M647.571 261.261H672.581V259.396H647.571V261.261Z" fill="#FFD887"/>
<path d="M647.571 267.135H672.581V262.078H647.571V267.135Z" fill="#FFD887"/>
<path d="M716.839 221.081H718.704V256.088H716.839V221.081Z" fill="#FFD989"/>
<path d="M716.908 342.71L686.393 325.642L696.882 324.952L716.908 342.71Z" fill="#D6D6D6"/>
<path d="M716.908 342.71L707.519 327.607L699.639 327.396L716.908 342.71Z" fill="#E8E8E8"/>
<path d="M693.411 329.569L692.799 333.414L716.908 342.71L693.411 329.569Z" fill="#C2C2C2"/>
<path d="M265.553 279.405L265.368 279.387C261.832 279.074 258.375 278.929 255.076 278.914C253.777 278.914 252.505 278.938 251.258 278.986L251.165 276.579C252.445 276.527 253.79 276.503 255.086 276.503C258.446 276.503 261.978 276.666 265.582 276.985L265.762 277.003L265.553 279.405ZM294.14 283.054C289.219 282.262 284.419 281.566 279.872 280.978L280.18 278.585C284.751 279.176 289.577 279.878 294.523 280.674L294.14 283.054ZM223.784 285.263L222.734 283.09C226.968 281.044 231.646 279.45 236.638 278.362L237.153 280.716C232.345 281.768 227.848 283.295 223.784 285.263ZM322.532 288.264C317.434 287.237 312.799 286.339 308.358 285.516L308.795 283.148C313.248 283.97 317.898 284.871 323.008 285.902L322.532 288.264ZM350.817 294.222C346.086 293.203 341.374 292.191 336.679 291.196L337.179 288.84C341.877 289.834 346.589 290.847 351.323 291.865L350.817 294.222ZM594.243 296.85L594.062 294.448C598.995 294.077 603.879 293.866 608.589 293.818L608.613 296.229C603.957 296.277 599.121 296.485 594.243 296.85ZM637.235 298.145C632.661 297.44 627.864 296.922 622.974 296.605L623.128 294.198C628.09 294.52 632.96 295.048 637.603 295.762L637.235 298.145ZM379.126 300.197C374.383 299.236 369.662 298.248 364.958 297.25L365.458 294.891C370.156 295.888 374.868 296.874 379.608 297.835L379.126 300.197ZM565.696 300.562L565.268 298.19C570.113 297.314 574.937 296.557 579.614 295.943L579.927 298.335C575.29 298.941 570.505 299.691 565.696 300.562ZM203.051 303.853L201.012 302.566C203.7 298.308 206.888 294.511 210.487 291.278L212.098 293.071C208.664 296.156 205.62 299.782 203.051 303.853ZM407.592 305.534C403.003 304.763 398.338 303.928 393.333 302.985L393.779 300.616C398.769 301.556 403.419 302.388 407.993 303.157L407.592 305.534ZM664.83 305.549C660.591 303.823 656.026 302.307 651.265 301.047L651.88 298.718C656.74 300.002 661.404 301.55 665.74 303.319L664.83 305.549ZM537.426 306.571L536.956 304.205C540.409 303.521 543.898 302.765 547.324 301.951C548.574 301.656 549.816 301.37 551.045 301.089L551.579 303.443C550.355 303.717 549.123 304.003 547.881 304.299C544.425 305.115 540.906 305.881 537.426 306.571ZM436.287 309.614C431.634 309.087 426.798 308.466 421.911 307.767L422.251 305.383C427.115 306.077 431.93 306.694 436.558 307.219L436.287 309.614ZM508.701 310.759L508.472 308.361C513.25 307.906 518.06 307.324 522.766 306.64L523.113 309.027C518.367 309.717 513.519 310.301 508.701 310.759ZM465.202 311.865C460.477 311.675 455.605 311.386 450.72 311L450.91 308.599C455.761 308.978 460.604 309.268 465.298 309.455L465.202 311.865ZM479.71 312.145L479.704 309.735C484.538 309.726 489.383 309.605 494.108 309.382L494.219 311.79C489.461 312.016 484.58 312.136 479.71 312.145ZM687.39 319.598C687.267 319.456 684.293 316.111 677.558 311.95L678.824 309.901C685.863 314.246 689.069 317.856 689.201 318.007L687.39 319.598ZM193.509 330.461L191.13 330.075C191.947 325.046 193.142 320.257 194.683 315.843L196.959 316.638C195.464 320.92 194.304 325.57 193.509 330.461ZM190.527 359.302C190.497 359.103 189.799 354.327 189.799 347.046C189.799 346.278 189.807 345.479 189.825 344.657L192.235 344.708C192.218 345.513 192.21 346.293 192.21 347.046C192.21 354.134 192.904 358.901 192.911 358.949L190.527 359.302Z" fill="#E0E0E0"/>
<defs>
<linearGradient id="paint0_linear" x1="761.642" y1="484.104" x2="709.824" y2="342.059" gradientUnits="userSpaceOnUse">
<stop stop-color="#FF9F55"/>
<stop offset="1" stop-color="#FFD255"/>
</linearGradient>
<linearGradient id="paint1_linear" x1="385.623" y1="377.964" x2="376.216" y2="365.853" gradientUnits="userSpaceOnUse">
<stop stop-color="#FF9F55"/>
<stop offset="1" stop-color="#FFD255"/>
</linearGradient>
<linearGradient id="paint2_linear" x1="380.714" y1="404.903" x2="368.734" y2="389.479" gradientUnits="userSpaceOnUse">
<stop stop-color="#FF9F55"/>
<stop offset="1" stop-color="#FFD255"/>
</linearGradient>
<linearGradient id="paint3_linear" x1="431.535" y1="393.624" x2="422.393" y2="381.854" gradientUnits="userSpaceOnUse">
<stop stop-color="#FF9F55"/>
<stop offset="1" stop-color="#FFD255"/>
</linearGradient>
<linearGradient id="paint4_linear" x1="406.311" y1="398.069" x2="262.754" y2="213.237" gradientUnits="userSpaceOnUse">
<stop stop-color="#FF9F55"/>
<stop offset="1" stop-color="#FFD255"/>
</linearGradient>
<linearGradient id="paint5_linear" x1="472.515" y1="483.311" x2="255.714" y2="204.177" gradientUnits="userSpaceOnUse">
<stop stop-color="#FF9F55"/>
<stop offset="1" stop-color="#FFD255"/>
</linearGradient>
<linearGradient id="paint6_linear" x1="564.192" y1="316.638" x2="548.666" y2="159.835" gradientUnits="userSpaceOnUse">
<stop stop-color="#FF9F55"/>
<stop offset="1" stop-color="#FFD255"/>
</linearGradient>
</defs>
</svg>
