<svg width="104" height="93" viewBox="0 0 104 93" fill="none" xmlns="http://www.w3.org/2000/svg">
<path d="M103.873 46.7566C103.873 39.8777 95.2684 33.3586 82.0754 29.316C85.1199 15.8545 83.7668 5.14462 77.8045 1.71576C76.4303 0.911457 74.8234 0.530473 73.0686 0.530473V5.25045C74.0411 5.25045 74.8234 5.44094 75.4788 5.80076C78.3542 7.45169 79.6017 13.7379 78.6291 21.8233C78.3965 23.8129 78.016 25.9083 77.5508 28.046C73.4069 27.0301 68.8823 26.2469 64.1252 25.7389C61.271 21.8233 58.311 18.2674 55.3299 15.156C62.2224 8.7428 68.6921 5.22928 73.0897 5.22928V0.509308C67.2755 0.509308 59.6641 4.65781 51.9682 11.8542C44.2723 4.70014 36.6609 0.593971 30.8467 0.593971V5.31394C35.2232 5.31394 41.714 8.8063 48.6065 15.1772C45.6466 18.2886 42.6866 21.8233 39.8746 25.7389C35.0964 26.2469 30.5719 27.0301 26.4279 28.0672C25.9416 25.9506 25.5822 23.8975 25.3285 21.9291C24.3348 13.8438 25.561 7.55752 28.4153 5.88542C29.0496 5.50444 29.8741 5.33511 30.8467 5.33511V0.615137C29.0707 0.615137 27.4639 0.996121 26.0685 1.80042C20.1274 5.22928 18.7954 15.918 21.8611 29.3371C8.71036 33.401 0.147583 39.8989 0.147583 46.7566C0.147583 53.6355 8.75264 60.1545 21.9457 64.1972C18.9011 77.6586 20.2542 88.3685 26.2165 91.7974C27.5907 92.6017 29.1976 92.9827 30.9736 92.9827C36.7878 92.9827 44.3992 88.8342 52.0951 81.6378C59.791 88.7919 67.4024 92.898 73.2166 92.898C74.9926 92.898 76.5994 92.517 77.9948 91.7127C83.9359 88.2839 85.2679 77.5951 82.2022 64.176C95.3107 60.1334 103.873 53.6143 103.873 46.7566ZM76.3457 32.639C75.5634 35.3694 74.5909 38.1844 73.4914 40.9995C72.6246 39.3062 71.7155 37.613 70.7217 35.9197C69.7492 34.2264 68.7132 32.5755 67.6772 30.9669C70.6795 31.4114 73.576 31.9617 76.3457 32.639ZM66.6624 55.1806C65.0132 58.0379 63.3218 60.7472 61.567 63.2659C58.4167 63.5411 55.2242 63.6892 52.0105 63.6892C48.818 63.6892 45.6254 63.5411 42.4963 63.2871C40.7415 60.7683 39.0289 58.0803 37.3798 55.2441C35.7729 52.4713 34.3141 49.6563 32.9821 46.8201C34.293 43.9839 35.773 41.1476 37.3587 38.3749C39.0078 35.5175 40.6992 32.8083 42.454 30.2896C45.6043 30.0144 48.7968 29.8663 52.0105 29.8663C55.203 29.8663 58.3956 30.0144 61.5247 30.2684C63.2795 32.7872 64.9921 35.4752 66.6412 38.3114C68.2481 41.0841 69.7069 43.8992 71.0389 46.7354C69.7069 49.5716 68.2481 52.4078 66.6624 55.1806ZM73.4914 52.429C74.6331 55.2652 75.6057 58.1014 76.4091 60.853C73.6394 61.5303 70.7218 62.1018 67.6984 62.5463C68.7343 60.9165 69.7703 59.2444 70.7429 57.53C71.7155 55.8367 72.6246 54.1223 73.4914 52.429ZM52.0528 75.0129C50.0865 72.981 48.1203 70.7163 46.1751 68.2399C48.078 68.3245 50.0231 68.388 51.9894 68.388C53.9768 68.388 55.943 68.3457 57.867 68.2399C55.9642 70.7163 53.9979 72.981 52.0528 75.0129ZM36.3227 62.5463C33.3204 62.1018 30.4239 61.5515 27.6542 60.8742C28.4364 58.1438 29.409 55.3287 30.5084 52.5137C31.3753 54.2069 32.2844 55.9002 33.2781 57.5935C34.2718 59.2867 35.2867 60.9377 36.3227 62.5463ZM51.9471 18.5002C53.9133 20.5322 55.8796 22.7969 57.8247 25.2733C55.9219 25.1886 53.9768 25.1251 52.0105 25.1251C50.0231 25.1251 48.0568 25.1675 46.1329 25.2733C48.0357 22.7969 50.002 20.5322 51.9471 18.5002ZM36.3015 30.9669C35.2655 32.5967 34.2295 34.2688 33.257 35.9832C32.2844 37.6765 31.3753 39.3697 30.5084 41.063C29.3667 38.2268 28.3942 35.3905 27.5907 32.639C30.3604 31.9829 33.2781 31.4114 36.3015 30.9669ZM17.1674 57.4665C9.68292 54.2704 4.84125 50.0796 4.84125 46.7566C4.84125 43.4335 9.68292 39.2216 17.1674 36.0467C18.9857 35.2635 20.9731 34.5651 23.0239 33.9089C24.2291 38.0574 25.8148 42.3753 27.781 46.7989C25.8359 51.2014 24.2714 55.4981 23.0874 59.6254C20.9942 58.9692 19.0068 58.2496 17.1674 57.4665ZM28.5422 87.7124C25.6668 86.0615 24.4193 79.7752 25.3919 71.6899C25.6245 69.7003 26.005 67.6049 26.4702 65.4671C30.6141 66.4831 35.1387 67.2662 39.8958 67.7742C42.75 71.6899 45.71 75.2457 48.6911 78.3571C41.7986 84.7703 35.329 88.2839 30.9313 88.2839C29.9799 88.2627 29.1764 88.0722 28.5422 87.7124ZM78.6925 71.5841C79.6862 79.6694 78.46 85.9556 75.6057 87.6277C74.9714 88.0087 74.1469 88.178 73.1743 88.178C68.7978 88.178 62.307 84.6857 55.4145 78.3148C58.3745 75.2034 61.3344 71.6687 64.1464 67.7531C68.9246 67.2451 73.4492 66.4619 77.5931 65.4248C78.0794 67.5626 78.46 69.6156 78.6925 71.5841ZM86.8325 57.4665C85.0142 58.2496 83.0268 58.9481 80.9759 59.6042C79.7708 55.4557 78.1851 51.1379 76.2188 46.7142C78.164 42.3118 79.7285 38.0151 80.9125 33.8878C83.0056 34.5439 84.993 35.2635 86.8536 36.0467C94.3381 39.2427 99.1798 43.4335 99.1798 46.7566C99.1586 50.0796 94.3169 54.2916 86.8325 57.4665Z" fill="#61DAFB"/>
<path d="M51.9893 56.4293C57.3256 56.4293 61.6515 52.0987 61.6515 46.7566C61.6515 41.4144 57.3256 37.0838 51.9893 37.0838C46.6531 37.0838 42.3271 41.4144 42.3271 46.7566C42.3271 52.0987 46.6531 56.4293 51.9893 56.4293Z" fill="#61DAFB"/>
</svg>
