<svg width="148" height="147" viewBox="0 0 148 147" fill="none" xmlns="http://www.w3.org/2000/svg">
<path d="M136.377 113.296L76.7632 147V120.756L113.901 100.332L136.377 113.296ZM140.458 109.607V39.1388L118.654 51.7348V97.0384L140.458 109.607ZM11.9191 113.296L71.5235 147V120.756L34.3626 100.327L11.9191 113.296ZM7.83757 109.607V39.1388L29.6423 51.7348V97.0384L7.83757 109.607ZM10.3931 34.5634L71.5235 0V25.3667L32.0415 47.0859L10.3931 34.5634ZM137.894 34.5634L76.7632 0V25.3667L116.245 47.063L137.894 34.5634Z" fill="#8ED6FB"/>
<path d="M71.5235 115.932L34.8728 95.7797V55.8875L71.5235 77.0372V115.932ZM76.7632 115.932L113.418 95.798V55.8783L76.7632 77.0372V115.932ZM37.3548 51.2754L74.1433 31.0675L110.932 51.28L74.1433 72.5031L37.3548 51.2754Z" fill="#1C78C0"/>
</svg>
